<svg id="Capa_1" enable-background="new 0 0 512 512" height="512" viewBox="0 0 512 512" width="512" xmlns="http://www.w3.org/2000/svg"><g><path d="m437.02 74.98c-48.353-48.351-112.64-74.98-181.02-74.98s-132.667 26.629-181.02 74.98c-48.351 48.353-74.98 112.64-74.98 181.02s26.629 132.667 74.98 181.02c48.353 48.351 112.64 74.98 181.02 74.98s132.667-26.629 181.02-74.98c48.351-48.353 74.98-112.64 74.98-181.02s-26.629-132.667-74.98-181.02zm-181.02-44.98c56.922 0 108.997 21.153 148.776 56.012l-22.613 22.613c-33.952-29.107-78.04-46.712-126.163-46.712s-92.211 17.605-126.162 46.712l-22.613-22.613c39.778-34.859 91.853-56.012 148.775-56.012zm43.934 369.717c0 4.741.269 9.476.804 14.171-14.227 4.037-29.235 6.198-44.738 6.198s-30.511-2.161-44.738-6.198c.534-4.695.804-9.43.804-14.171 0-66.725-52.911-121.324-118.98-124.045-.774-6.451-1.173-13.016-1.173-19.672 0-14.366 1.856-28.306 5.34-41.594 51.162-16.198 104.526-24.406 158.747-24.406s107.585 8.208 158.746 24.406c3.484 13.288 5.34 27.228 5.34 41.594 0 6.656-.399 13.221-1.173 19.672-66.068 2.721-118.979 57.32-118.979 124.045zm112.264-93.405c-13.527 41.897-43.476 76.482-82.225 96.135-.026-.909-.039-1.819-.039-2.73 0-47.889 35.94-87.543 82.264-93.405zm-230.132 93.405c0 .911-.013 1.821-.039 2.73-38.749-19.653-68.698-54.238-82.225-96.135 46.324 5.862 82.264 45.516 82.264 93.405zm73.934-239.717c-49.27 0-97.881 6.417-144.927 19.104 27.611-51.83 82.217-87.191 144.927-87.191s117.316 35.361 144.927 87.191c-47.046-12.687-95.657-19.104-144.927-19.104zm-226 96c0-56.922 21.153-108.997 56.012-148.776l22.613 22.613c-29.107 33.952-46.712 78.04-46.712 126.163s17.605 92.21 46.711 126.162l-22.613 22.613c-34.858-39.778-56.011-91.853-56.011-148.775zm226 226c-56.922 0-108.997-21.153-148.776-56.012l22.613-22.613c33.952 29.107 78.04 46.712 126.163 46.712s92.211-17.605 126.163-46.712l22.613 22.613c-39.779 34.859-91.854 56.012-148.776 56.012zm169.988-77.225-22.613-22.613c29.107-33.952 46.711-78.04 46.711-126.162s-17.605-92.211-46.712-126.162l22.613-22.613c34.86 39.778 56.013 91.853 56.013 148.775s-21.153 108.997-56.012 148.775z"/><path d="m256 219.348c-24.813 0-45 20.187-45 45s20.187 45 45 45 45-20.187 45-45-20.187-45-45-45zm0 60c-8.271 0-15-6.729-15-15s6.729-15 15-15 15 6.729 15 15-6.729 15-15 15z"/><path d="m149.5 231.87h30v30h-30z"/><path d="m332.5 231.87h30v30h-30z"/><path d="m241 344.652h30v30h-30z"/></g></svg>